<svg width="148" height="29" viewBox="0 0 148 29" fill="none" xmlns="http://www.w3.org/2000/svg">
<path d="M6.3022 18.7252L6.54623 19.0469C6.16539 23.1918 14.4255 23.7427 15.3388 20.8032C16.5035 17.054 10.2067 16.8358 7.9032 16.1851C3.31465 14.8873 0.33819 12.7834 0.752306 7.52933C1.46592 -1.56273 17.72 -2.46121 21.1031 5.05573C21.5173 5.97639 22.1643 7.90277 21.5357 8.75689H15.52C14.9653 7.45908 14.7028 6.46816 13.2201 5.98009C11.7375 5.49203 8.14353 5.44766 7.61849 7.43319C7.20068 9.0194 7.91429 9.73302 9.27865 10.295C13.7045 12.1216 21.3915 11.6446 22.1717 18.2705C23.6618 30.9195 2.42726 31.3003 0.245754 21.2062C0.094158 20.5 -0.242311 19.2577 0.286426 18.7215H6.3022V18.7252Z" fill="#3AD362"/>
<path d="M115.447 27.7505H109.054V25.1179C108.171 26.3825 107.128 27.5065 105.564 27.928C90.5709 31.9508 91.7208 0.625949 107.35 8.11331L108.866 9.69952V0.296875H115.163L115.444 0.577883V27.7468L115.447 27.7505ZM107.487 22.2302C109.861 20.1781 109.687 12.7499 105.941 12.1546C100.458 11.282 100.195 21.28 103.982 22.7626C105.117 23.2063 106.562 23.0289 107.487 22.2302Z" fill="#3AD362"/>
<path d="M30.8382 0.296875V14.5876L36.4805 7.44407H44.0012L37.2977 16L44.3783 27.7505H36.8577L32.4429 20.2225L32.0658 20.0413L30.8382 21.45V27.7505H24.4453V0.296875H30.8382Z" fill="#3AD362"/>
<path d="M148 27.7504H141.607C141.452 27.5434 141.607 26.6116 141.607 26.338C141.607 25.7649 141.607 25.1881 141.611 24.615C141.614 23.5168 141.625 22.4187 141.647 21.3242C141.688 19.2684 141.921 17.1683 141.533 15.131C141.071 12.7091 138.294 11.3928 136.168 12.8164C135.321 13.3821 134.463 15.0053 134.463 15.9999V27.7504H125.793V19.0725C125.793 18.81 125.963 18.577 126.214 18.4994L126.273 18.4809C126.462 18.4217 126.673 18.4587 126.824 18.5844C128.754 20.2076 131.657 19.7269 132.781 17.3458C134.84 12.9938 130.866 8.1169 126.75 11.2745C126.543 11.4335 126.255 11.4372 126.044 11.2856C125.885 11.1747 125.789 10.9898 125.789 10.7939V7.44026H134.086V10.8234C135.181 9.2779 136.09 7.89135 138.035 7.34413C143.075 5.9317 148 9.10782 148 14.4876V27.743V27.7504Z" fill="#3AD362"/>
<path d="M93.0738 19.0989H79.3488C79.3082 22.4895 82.3179 24.3123 85.4127 22.9997C86.4073 22.5782 86.6624 21.4468 87.1542 21.3543C88.9437 21.3654 90.8368 21.3174 92.6116 21.5429C92.8778 21.5762 92.9333 21.4431 92.8852 21.8202C92.4231 25.3735 88.5666 27.799 85.25 28.1022C76.1431 28.9341 70.926 22.4673 73.4662 13.6858C76.4167 3.48821 93.0775 5.52182 93.0775 15.8118V19.1026L93.0738 19.0989ZM86.8695 15.3386C86.7696 10.3766 79.567 10.4062 79.3488 15.3386H86.8695Z" fill="#3AD362"/>
<path d="M124.662 0.296875V11.4854C124.662 12.1103 125.664 12.6797 126.259 12.6834C127.834 12.6908 128.355 10.5314 130.689 11.8514C132.781 13.0383 132.6 17.357 130.219 18.1667C128.211 18.8507 127.594 17.0649 126.048 17.2312C125.649 17.2756 125.287 17.4938 125.031 17.8044C124.795 18.0928 124.665 18.4551 124.665 18.8322V27.7468H118.272V0.296875H124.665H124.662Z" fill="#3AD362"/>
<path d="M70.8891 0.296875V27.6544L70.4158 27.9354H64.7772L64.3076 27.6544V0.296875H70.8891Z" fill="#3AD362"/>
<path d="M61.6752 27.7505H55.0938V0.296875H61.3942L61.6752 0.58158V27.7505Z" fill="#3AD362"/>
<path d="M45.8799 7.25586H52.1804L52.4614 7.53687V27.6548L52.1804 27.9358H46.1646L45.8799 27.6548V7.25586Z" fill="#3AD362"/>
<path d="M45.8799 5.37349V0.296875H52.1804L52.4614 0.58158V5.09248L52.1804 5.37349H45.8799Z" fill="#3AD362"/>
</svg>
